<svg width="185" height="36" viewBox="0 0 185 36" fill="none" xmlns="http://www.w3.org/2000/svg">
<path d="M45.0156 29.388V8.22868H48.5611V26.0672H57.9175V29.388H45.0156Z" fill="black"/>
<path d="M60.7039 11.1087V7.86133H64.2493V11.1087H60.7039ZM60.7039 29.388V13.5185H64.2493V29.388H60.7039Z" fill="black"/>
<path d="M79.6454 29.388V21.7472C79.6454 21.2476 79.6111 20.6941 79.5424 20.0867C79.4738 19.4794 79.3119 18.8965 79.0569 18.3381C78.8118 17.77 78.4391 17.3047 77.9389 16.9422C77.4485 16.5798 76.7816 16.3985 75.9381 16.3985C75.487 16.3985 75.0408 16.472 74.5994 16.619C74.1581 16.7659 73.756 17.0206 73.3931 17.383C73.04 17.7357 72.7556 18.2255 72.5398 18.8524C72.3241 19.4696 72.2162 20.2631 72.2162 21.2329L70.1125 20.3365C70.1125 18.9847 70.3724 17.7602 70.8922 16.663C71.4218 15.5659 72.1966 14.694 73.2165 14.0475C74.2365 13.3912 75.4919 13.063 76.9827 13.063C78.1596 13.063 79.1305 13.2589 79.8955 13.6508C80.6605 14.0426 81.2686 14.5422 81.7197 15.1496C82.1708 15.7569 82.5043 16.4034 82.7201 17.0892C82.9358 17.7749 83.0731 18.4263 83.132 19.0435C83.2006 19.6508 83.235 20.1455 83.235 20.5276V29.388H79.6454ZM68.6266 29.388V13.5185H71.7896V18.441H72.2162V29.388H68.6266Z" fill="black"/>
<path d="M94.0386 29.8289C92.4302 29.8289 91.0179 29.4811 89.8017 28.7856C88.5856 28.0901 87.6343 27.1252 86.9477 25.8909C86.271 24.6566 85.9327 23.2361 85.9327 21.6296C85.9327 19.8957 86.2661 18.392 86.933 17.1185C87.5999 15.8353 88.5268 14.841 89.7135 14.1357C90.9002 13.4304 92.2732 13.0777 93.8326 13.0777C95.4803 13.0777 96.8779 13.4646 98.0254 14.2385C99.1827 15.0026 100.041 16.0851 100.6 17.4859C101.159 18.8867 101.37 20.5374 101.232 22.4378H97.7164V21.1447C97.7066 19.4206 97.4026 18.1618 96.8043 17.3683C96.2061 16.5749 95.2645 16.1781 93.9798 16.1781C92.5282 16.1781 91.4494 16.6287 90.7433 17.53C90.0371 18.4214 89.684 19.7292 89.684 21.4533C89.684 23.0598 90.0371 24.3039 90.7433 25.1856C91.4494 26.0672 92.4792 26.508 93.8326 26.508C94.7055 26.508 95.4558 26.317 96.0835 25.9349C96.721 25.5431 97.2113 24.9798 97.5546 24.2451L101.056 25.3031C100.448 26.7333 99.5063 27.8452 98.2313 28.6386C96.9662 29.4321 95.5686 29.8289 94.0386 29.8289ZM88.566 22.4378V19.7635H99.4965V22.4378H88.566Z" fill="black"/>
<path d="M113.827 29.388C112.778 29.584 111.748 29.6672 110.738 29.6378C109.737 29.6182 108.84 29.437 108.046 29.0942C107.251 28.7415 106.648 28.188 106.236 27.4337C105.873 26.748 105.682 26.0476 105.662 25.3325C105.643 24.6174 105.633 23.8092 105.633 22.908V9.11032H109.164V22.7023C109.164 23.339 109.169 23.8974 109.178 24.3774C109.198 24.8574 109.301 25.2492 109.487 25.5529C109.84 26.1407 110.404 26.4688 111.179 26.5374C111.954 26.606 112.837 26.5668 113.827 26.4198V29.388ZM102.75 16.2957V13.5185H113.827V16.2957H102.75Z" fill="black"/>
<path d="M120.627 29.388L115.773 13.4891L119.244 13.5185L122.348 23.7015L125.497 13.5185H128.483L131.617 23.7015L134.735 13.5185H138.207L133.353 29.388H130.587L126.983 18.4704L123.393 29.388H120.627Z" fill="black"/>
<path d="M147.511 29.8289C145.902 29.8289 144.49 29.4811 143.274 28.7856C142.058 28.0901 141.106 27.1252 140.42 25.8909C139.743 24.6566 139.405 23.2361 139.405 21.6296C139.405 19.8957 139.738 18.392 140.405 17.1185C141.072 15.8353 141.999 14.841 143.186 14.1357C144.372 13.4304 145.745 13.0777 147.305 13.0777C148.953 13.0777 150.35 13.4646 151.498 14.2385C152.655 15.0026 153.513 16.0851 154.072 17.4859C154.631 18.8867 154.842 20.5374 154.705 22.4378H151.189V21.1447C151.179 19.4206 150.875 18.1618 150.277 17.3683C149.678 16.5749 148.737 16.1781 147.452 16.1781C146 16.1781 144.922 16.6287 144.215 17.53C143.509 18.4214 143.156 19.7292 143.156 21.4533C143.156 23.0598 143.509 24.3039 144.215 25.1856C144.922 26.0672 145.951 26.508 147.305 26.508C148.178 26.508 148.928 26.317 149.556 25.9349C150.193 25.5431 150.684 24.9798 151.027 24.2451L154.528 25.3031C153.92 26.7333 152.979 27.8452 151.704 28.6386C150.438 29.4321 149.041 29.8289 147.511 29.8289ZM142.038 22.4378V19.7635H152.969V22.4378H142.038Z" fill="black"/>
<path d="M165.21 29.8289C163.602 29.8289 162.19 29.4811 160.974 28.7856C159.757 28.0901 158.806 27.1252 158.12 25.8909C157.443 24.6566 157.104 23.2361 157.104 21.6296C157.104 19.8957 157.438 18.392 158.105 17.1185C158.772 15.8353 159.699 14.841 160.885 14.1357C162.072 13.4304 163.445 13.0777 165.004 13.0777C166.652 13.0777 168.05 13.4646 169.197 14.2385C170.354 15.0026 171.213 16.0851 171.772 17.4859C172.331 18.8867 172.542 20.5374 172.404 22.4378H168.888V21.1447C168.878 19.4206 168.574 18.1618 167.976 17.3683C167.378 16.5749 166.436 16.1781 165.152 16.1781C163.7 16.1781 162.621 16.6287 161.915 17.53C161.209 18.4214 160.856 19.7292 160.856 21.4533C160.856 23.0598 161.209 24.3039 161.915 25.1856C162.621 26.0672 163.651 26.508 165.004 26.508C165.877 26.508 166.628 26.317 167.255 25.9349C167.893 25.5431 168.383 24.9798 168.726 24.2451L172.228 25.3031C171.62 26.7333 170.678 27.8452 169.403 28.6386C168.138 29.4321 166.74 29.8289 165.21 29.8289ZM159.738 22.4378V19.7635H170.668V22.4378H159.738Z" fill="black"/>
<path d="M184.999 29.388C183.95 29.584 182.92 29.6672 181.91 29.6378C180.909 29.6182 180.012 29.437 179.217 29.0942C178.423 28.7415 177.82 28.188 177.408 27.4337C177.045 26.748 176.854 26.0476 176.834 25.3325C176.815 24.6174 176.805 23.8092 176.805 22.908V9.11032H180.335V22.7023C180.335 23.339 180.34 23.8974 180.35 24.3774C180.37 24.8574 180.473 25.2492 180.659 25.5529C181.012 26.1407 181.576 26.4688 182.351 26.5374C183.126 26.606 184.008 26.5668 184.999 26.4198V29.388ZM173.921 16.2957V13.5185H184.999V16.2957H173.921Z" fill="black"/>
<path fill-rule="evenodd" clip-rule="evenodd" d="M0 0H8.8268V27.1836H22.067V30.1224H5.88453V2.9388H2.93928V33.0612L25.0122 33.1581V24.2448H11.7691V5.8776H14.7113V21.306H27.9515V36H0L0 0Z" fill="black"/>
</svg>
